HIERARCHY
ROOT Hips
{
	OFFSET	0	0	0
	CHANNELS 6  Xposition Yposition Zposition Xrotation Yrotation Zrotation
	JOINT Spine
	{
		OFFSET	0	7.0817	1.42564
		CHANNELS 3  Xrotation Yrotation Zrotation
		JOINT Spine1
		{
			OFFSET	0	12.1578	-2.17103
			CHANNELS 3  Xrotation Yrotation Zrotation
			JOINT Spine2
			{
				OFFSET	0	9.21601	0.987817
				CHANNELS 3  Xrotation Yrotation Zrotation
				JOINT Spine3
				{
					OFFSET	0	11.0288	3.27825
					CHANNELS 3  Xrotation Yrotation Zrotation
					JOINT Spine4
					{
						OFFSET	0	16.3261	-1.67169
						CHANNELS 3  Xrotation Yrotation Zrotation
						JOINT Neck
						{
							OFFSET	0	7.79399	-5.46013
							CHANNELS 3  Xrotation Yrotation Zrotation
							JOINT Head
							{
								OFFSET	0	9.35713	-2.80063
								CHANNELS 3  Xrotation Yrotation Zrotation
								End Site
								{
									OFFSET	0	19.5175	-0.944397
								}
							}
						}
					}
					JOINT LeftShoulder
					{
						OFFSET	-4.68942	19.8432	-9.35713
						CHANNELS 3  Xrotation Yrotation Zrotation
						JOINT LeftArm
						{
							OFFSET	-10.2519	-2.80063	3.59307
							CHANNELS 3  Xrotation Yrotation Zrotation
							JOINT LeftForeArm
							{
								OFFSET	-34.1249	-1.55752	2.4358
								CHANNELS 3  Xrotation Yrotation Zrotation
								JOINT LeftHand
								{
									OFFSET	-28.1809	-1.94746	2.01152
									CHANNELS 3  Xrotation Yrotation Zrotation
									End Site
									{
										OFFSET	-10.2846	-0.710727	0.734058
									}
								}
							}
						}
					}
					JOINT RightShoulder
					{
						OFFSET	4.68942	19.8432	-9.35713
						CHANNELS 3  Xrotation Yrotation Zrotation
						JOINT RightArm
						{
							OFFSET	10.2519	-2.80063	3.59307
							CHANNELS 3  Xrotation Yrotation Zrotation
							JOINT RightForeArm
							{
								OFFSET	34.1249	-1.55752	2.4358
								CHANNELS 3  Xrotation Yrotation Zrotation
								JOINT RightHand
								{
									OFFSET	28.1809	-1.94746	2.01152
									CHANNELS 3  Xrotation Yrotation Zrotation
									End Site
									{
										OFFSET	10.2846	-0.710727	0.734058
									}
								}
							}
						}
					}
				}
			}
		}
	}
	JOINT LeftUpLeg
	{
		OFFSET	-9.64475	-3.54085	-0.712821
		CHANNELS 3  Xrotation Yrotation Zrotation
		JOINT LeftLeg
		{
			OFFSET	-2.14734	-42.0762	-0.657743
			CHANNELS 3  Xrotation Yrotation Zrotation
			JOINT LeftFoot
			{
				OFFSET	-2.09898	-38.6909	3.32741
				CHANNELS 3  Xrotation Yrotation Zrotation
				JOINT LeftToeBase
				{
					OFFSET	0	-4.81787	-12.7963
					CHANNELS 3  Xrotation Yrotation Zrotation
					End Site
					{
						OFFSET	0	-1.92715	-7.70859
					}
				}
			}
		}
	}
	JOINT RightUpLeg
	{
		OFFSET	9.64475	-3.54085	-0.712821
		CHANNELS 3  Xrotation Yrotation Zrotation
		JOINT RightLeg
		{
			OFFSET	2.14734	-42.0762	-0.657743
			CHANNELS 3  Xrotation Yrotation Zrotation
			JOINT RightFoot
			{
				OFFSET	2.09898	-38.6909	3.32741
				CHANNELS 3  Xrotation Yrotation Zrotation
				JOINT RightToeBase
				{
					OFFSET	0	-4.81787	-12.7963
					CHANNELS 3  Xrotation Yrotation Zrotation
					End Site
					{
						OFFSET	0	-1.92715	-7.70859
					}
				}
			}
		}
	}
}
MOTION
Frames: 9
Frame Time: 0.020408
 0 -10.1657 2.85827 -0 0 -0 -0 0 -0 -0 0 -0 -0 0 -0 -0 0 -0 -0 0 -0 -0 0 -0 -0 0 -0 -0 0 -0 -0 0 -0 -0 0 -0 -0 0 -0 -0 0 -0 -0 0 -0 -0 0 -0 -0 0 -0 -0 0 -0 -0 0 -0 -0 0 -0 -0 0 -0 -0 0 -0 -0 0 -0 -0 0 -0 -0 0 -0
 12.7274 92.6646 -94.3022 107.887 -78.1844 112.523 0.00108648 0.0805893 -0.772399 176.608 179.839 178.713 176.524 179.517 178.713 177.463 179.919 179.228 179.507 179.998 179.743 1.8267 1.09987 0.447208 0.547722 1.34794 0.231869 175.918 -157.021 171.129 175.397 -147.434 -100.17 31.4087 -23.9689 12.1429 -0 16.7207 14.5391 1.07566 19.0274 -2.31199 166.699 139.855 115.485 22.8879 28.3682 -9.72514 -0 -9.71498 1.39525 163.04 149.931 178.708 10.2504 -3.47374 0.0200843 176.728 178.612 -178.712 0.197466 0 0 176.066 177.517 176.365 168.821 -164.688 177.163 179.885 -179.49 -176.775 2.82155 0 0
 12.6802 92.7164 -94.313 108.289 -78.3732 113.335 0.00111363 0.0799908 -0.797619 176.708 179.84 178.671 176.619 179.52 178.671 177.514 179.92 179.202 179.578 179.998 179.734 1.93625 1.00474 0.157159 0.580138 1.50558 0.156243 176.028 -156.45 171.364 174.449 -147.572 -100.55 31.5314 -23.3842 11.6552 -0 16.671 14.7783 1.31354 18.1213 -2.81673 166.07 139.755 116.276 22.8911 28.3075 -9.66609 -0 -11.0522 0.299495 163.643 149.924 178.008 9.91796 -3.91257 0.138473 176.939 178.717 -178.725 0.244516 0 0 176.618 177.82 176.594 168.069 -164.311 176.461 179.771 -179.599 -176.907 2.84147 0 0
 12.4241 92.8159 -94.2369 110.017 -78.6021 115.401 0.00118734 0.0836171 -0.813529 176.799 179.833 178.644 176.701 179.498 178.644 177.545 179.916 179.186 179.677 179.998 179.729 2.13341 1.17327 0.108568 0.638904 1.83597 0.164947 176.195 -156.005 171.725 173.703 -148.1 -101.384 31.8271 -22.9075 11.5471 -0 16.2051 15.2881 1.37198 16.8294 -2.93059 166.307 139.74 116.276 22.7794 27.885 -9.29168 -0 -12.4455 -0.829994 164.024 150.164 177.665 10.418 -4.2155 0.101184 176.373 178.685 -178.801 0.323168 0 0 177.659 177.969 176.572 167.003 -163.897 176.277 179.448 -179.641 -176.612 2.84968 0 0
 12.375 92.9169 -94.3086 111.194 -78.553 116.918 0.00100421 0.0697537 -0.824805 176.865 179.861 178.625 176.77 179.582 178.625 177.603 179.93 179.175 179.667 179.998 179.725 2.04448 1.1336 -0.295722 0.611818 2.21952 0.0717082 176.355 -156.086 172.076 173.072 -148.448 -101.799 32.0156 -22.2419 11.3934 -0 15.6182 15.7277 1.39871 15.1634 -2.9703 167.102 139.935 115.999 22.4781 26.9343 -8.92402 -0 -13.9729 -1.70732 164.112 150.508 177.131 10.6127 -4.22867 0.462609 176.217 178.617 -178.992 0.388852 0 0 177.977 178.166 177.041 166.359 -164 175.966 179.02 -179.477 -176.968 2.86081 0 0
 12.1066 93.0253 -94.0361 112.73 -78.8595 119.001 0.000719543 0.0483457 -0.852688 176.961 179.903 178.579 176.848 179.71 178.579 177.62 179.952 179.147 179.809 179.999 179.716 2.36328 1.47428 -0.399258 0.70648 2.89754 0.0873133 176.671 -156.017 172.765 172.042 -148.579 -102.821 32.1311 -21.5476 11.1016 -0 15.0899 16.5606 1.39374 13.5834 -2.94091 168.559 140.143 115.186 22.2206 26.1602 -8.42718 -0 -15.4301 -2.20888 164.873 150.948 176.124 10.8948 -4.28521 0.58481 175.804 178.836 -178.831 0.443129 0 0 179.08 178.912 177.036 165.116 -165.309 176.271 178.313 -179.581 -176.708 2.89178 0 0
 12.0324 93.136 -94.0334 114.435 -78.935 121.051 0.000395338 0.0258014 -0.877838 177.061 179.948 178.537 176.948 179.845 178.537 177.693 179.974 179.122 179.829 179.999 179.707 2.32116 1.27294 -0.667246 0.694406 2.8619 0.00440255 176.818 -156.117 173.087 170.742 -148.509 -103.307 32.3006 -20.7621 10.8143 -0 14.7719 17.7246 1.34799 12.3463 -2.82854 169.958 140.274 114.371 21.8739 25.4196 -8.08404 -0 -16.5282 -2.28866 165.081 151.299 175.614 11.1596 -3.72437 0.847887 175.533 178.64 -179.051 0.488856 0 0 179.501 179.41 177.249 164.34 -167.154 177.21 176.991 -179.442 -177.93 2.94587 0 0
 11.8815 93.3145 -94.0375 112.271 -79.4506 119.59 179.999 -179.953 179.026 177.131 -179.906 178.376 177.004 -179.719 178.376 177.724 -179.953 179.026 179.894 179.999 179.675 2.43385 1.03613 -0.927525 0.729164 2.75868 -0.0823766 177.353 -155.957 174.251 170.231 -148.62 -104.354 32.0972 -19.2885 9.72398 -0 14.7251 18.2901 1.33247 11.188 -2.78018 170.709 140.468 114.106 21.5803 24.747 -7.69831 -0 -17.2039 -2.07103 165.751 152.126 174.717 11.455 -3.43436 0.481574 175.101 179.442 -178.522 0.531658 0 0 0.0756855 0.950506 -2.90072 162.603 -169.555 179.638 170.418 -179.892 -178.608 2.90276 0 0
 11.6193 93.0934 -93.798 123.022 -78.6607 130.2 0.00141689 0.0938786 -0.864687 177.29 179.812 178.559 177.19 179.437 178.559 177.862 179.906 179.135 179.864 179.999 179.712 2.20211 1.10152 -1.16566 0.659712 3.13081 -0.1251 177.338 -156.22 174.222 169.712 -148.925 -105.492 31.9169 -18.1029 9.28507 -0 14.823 18.8766 1.312 10.8311 -2.73242 171.415 140.265 113.325 21.412 24.2278 -7.51418 -0 -18.1282 -1.72868 165.682 152.104 174.825 11.5831 -2.0312 0.676031 175.315 179.19 -178.641 0.548059 0 0 0.0429332 -0.549029 -2.69277 164.318 -170.421 179.043 179.192 -178.887 176.858 3.14363 0 0
